# Blender v2.74 (sub 0) OBJ File: 'hexa_tile.blend'
# www.blender.org
o Circle.001_Circle
v 0.000000 0.000000 -1.000000
v -0.866025 0.000000 -0.500000
v -0.866025 0.000000 0.500000
v 0.000000 0.000000 1.000000
v 0.866025 0.000000 0.500000
v 0.866025 0.000000 -0.500000
v 0.000000 -0.600000 -1.000000
v -0.866025 -0.600000 -0.500000
v -0.866025 -0.600000 0.500000
v 0.000000 -0.600000 1.000000
v 0.866025 -0.600000 0.500000
v 0.866025 -0.600000 -0.500000
vt 0.500000 0.375000
vt 0.000000 0.125000
vt 0.500000 0.125000
vt 0.750000 0.500000
vt 0.750000 0.000000
vt 1.000000 0.375000
vt 0.173205 0.875000
vt 0.173205 1.000000
vt 0.000000 1.000000
vt 0.173205 0.625000
vt 0.000000 0.875000
vt 0.173205 0.500000
vt 0.000000 0.625000
vt 0.346410 0.625000
vt 0.346410 0.875000
vt 0.346410 0.500000
vt 0.519615 0.500000
vt 0.519615 0.750000
vt 0.346410 0.750000
vt 0.250000 0.500000
vt 0.250000 0.000000
vt 0.000000 0.375000
vt 1.000000 0.125000
vt 0.000000 0.500000
vn 0.000000 1.000000 0.000000
vn 0.000000 -1.000000 0.000000
vn 0.500000 0.000000 -0.866000
vn 1.000000 0.000000 0.000000
vn 0.500000 0.000000 0.866000
vn -0.500000 0.000000 0.866000
vn -1.000000 0.000000 0.000000
vn -0.500000 0.000000 -0.866000
s off
f 1/1/1 4/2/1 6/3/1
f 9/4/2 12/5/2 10/6/2
f 12/7/3 7/8/3 1/9/3
f 11/10/4 12/7/4 6/11/4
f 10/12/5 11/10/5 5/13/5
f 9/14/6 10/15/6 4/7/6
f 8/16/7 9/14/7 3/10/7
f 7/17/8 8/18/8 2/19/8
f 4/2/1 1/1/1 2/20/1
f 4/2/1 5/21/1 6/3/1
f 2/20/1 3/22/1 4/2/1
f 12/5/2 9/4/2 8/1/2
f 12/5/2 11/23/2 10/6/2
f 8/1/2 7/3/2 12/5/2
f 6/11/3 12/7/3 1/9/3
f 5/13/4 11/10/4 6/11/4
f 4/24/5 10/12/5 5/13/5
f 3/10/6 9/14/6 4/7/6
f 2/12/7 8/16/7 3/10/7
f 1/16/8 7/17/8 2/19/8
